<svg width="100" height="100" viewBox="0 0 100 100" fill="none" xmlns="http://www.w3.org/2000/svg">
<path d="M36 54L37.5 90C37.5 90 38.5 90.5001 49.5 91.5C60.5 92.5 67.5 91.5 67.5 91.5L66.5 74.5C66.5 74.5 67.5 69.0001 72 53C76.5 37 69 31 69 31C69 31 70.1759 22.6407 66.5 21C63.2855 19.5653 58 24 58 24C58 24 58 15.5001 52 15.5C46 15.4999 41 24 41 24C41 24 35 21.5 32.5 31C30 40.5 36 54 36 54Z" fill="#FFC757"/>
<path d="M41 24C41 24 35 21.5 32.5 31C30 40.5 36 54 36 54L37.5 90C37.5 90 38.5 90.5001 49.5 91.5C60.5 92.5 67.5 91.5 67.5 91.5L66.5 74.5C66.5 74.5 67.5 69.0001 72 53C76.5 37 69 31 69 31M41 24V35M41 24C41 24 46 15.4999 52 15.5C58 15.5001 58 24 58 24M58 24L57 35M58 24C58 24 63.2855 19.5653 66.5 21C70.1759 22.6407 69 31 69 31M69 31L65 38" stroke="black" stroke-width="3" stroke-linejoin="round"/>
<path d="M39.5 54V60.5L58.5 54L37 49L39.5 54Z" fill="#FFB013"/>
<path d="M64 73L66 62.5L56.5 64L61 67.5L50.5 71.5L64 73Z" fill="#FFB013"/>
<path d="M39.5 87V81.5L45.5 80.5L43.5 84.5L54.5 82.5L50.5 84.5L56.5 88H50.5L39.5 87Z" fill="#FFB013"/>
</svg>
