<svg width="823" height="321" viewBox="0 0 823 321" fill="none" xmlns="http://www.w3.org/2000/svg">
<path d="M571 145L607 211.5C622.833 211.5 655.1 209.9 657.5 203.5C659.9 197.1 648.5 161.833 642.5 145H571Z" fill="#FFE2EC"/>
<mask id="path-2-outside-1_37_4" maskUnits="userSpaceOnUse" x="76.0285" y="5.19868" width="658" height="308" fill="black">
<rect fill="white" x="76.0285" y="5.19868" width="658" height="308"/>
<path d="M688.12 174.66C688.12 217.56 644.56 241.54 613.32 241.54C577.46 241.54 546 215.58 546 176.86C546 131.54 579.88 108 618.6 108C667.22 108 688.12 146.06 688.12 174.66ZM618.6 199.52C634.22 199.52 641.26 186.76 641.26 174.22C641.26 170.04 640.38 148.7 617.94 148.7C599.46 148.7 594.18 164.32 594.18 174.22C594.18 189.4 606.06 199.52 618.6 199.52Z"/>
<path d="M532.504 245.334L508.552 265.014C506.193 266.855 504.137 267.639 502.023 267.032C500.965 266.729 499.818 265.942 498.791 264.733C489.343 253.784 467.578 229.92 458.733 220.06C457.706 218.851 456.923 216.795 457.468 214.892C457.772 213.834 458.498 212.898 459.919 211.933L480.965 197.598C468.421 200.639 457.178 203.136 452.342 204.038L450.891 204.309L442.425 241.017C441.697 243.555 439.399 245.184 436.861 244.457L393.898 234.655C391.572 233.988 389.942 231.69 390.459 229.091L431.12 53.7673L431.241 53.3443C431.847 51.2295 434.296 49.872 436.472 50.2669L479.374 60.2802L479.797 60.4015C482.123 61.0685 483.269 63.457 482.813 65.8438L461.694 157.056C472.305 152.775 516.441 136.136 525.746 138.804C527.438 139.289 529.099 140.681 530.002 143.915L539.368 177.498C539.85 179.009 539.909 180.399 539.546 181.668C538.939 183.783 537.125 185.322 534.223 185.864C528.208 186.885 514.274 189.985 499.585 193.325C513.054 202.222 537.441 233.704 535.197 241.529C534.834 242.797 534.047 243.945 532.504 245.334Z"/>
<path d="M347.66 216H345.02C295.08 216 270 181.9 270 148.46C270 117 292.22 84 342.38 84C396.94 84 399.36 132.62 399.36 139.88C399.36 150 395.18 158.36 382.2 162.76C371.86 166.28 355.58 168.7 344.14 169.14C340.62 169.14 339.52 167.6 338.64 164.96C336 157.7 331.82 143.4 331.82 142.52C331.82 140.1 333.58 139 336.44 138.34C347.88 135.7 349.42 135.26 349.42 132.18C349.42 130.2 345.24 123.16 336 123.16C325.44 123.16 316.64 132.4 316.64 146.04C316.64 161.66 328.08 179.26 355.58 179.26C357.12 179.26 358.88 179.26 360.42 179.04H360.86C363.94 179.04 367.68 181.02 367.68 184.76C367.68 186.96 361.96 201.92 358.66 209.4C356.9 212.92 354.04 216 347.66 216Z"/>
<path d="M264.637 178.988L266.27 186.062C269.041 198.066 274.055 207.069 284.724 213.186C286.258 213.961 288.897 215.609 289.441 217.967C289.738 219.254 289.392 220.688 288.139 222.106C288.238 222.535 270.53 242.654 270.53 242.654C268.782 244.864 266.787 246.002 264.858 246.447C260.999 247.338 224.078 243.895 215.269 205.739L213.587 198.451C208.39 175.943 195.28 169.035 179.434 171.79L193.326 250.544C193.82 252.687 192.337 255.062 190.193 255.557L189.764 255.656L146.397 263.41C143.775 263.789 141.615 262.256 141.021 259.684L121.074 146.88C120.744 144.472 122.228 142.098 124.372 141.603L124.801 141.504L149.106 137.247C157.07 133.602 164.804 130.914 172.521 129.132C216.036 119.086 255.184 138.045 264.637 178.988Z"/>
<path fill-rule="evenodd" clip-rule="evenodd" d="M506.899 66.287C507.548 66.0945 508.25 66.2853 508.712 66.7799L520.661 79.5716C521.583 79.6224 522.511 79.7286 523.442 79.8927C524.373 80.0568 525.281 80.2745 526.165 80.5421L541.769 72.6088C542.372 72.3021 543.097 72.3628 543.641 72.7657C544.185 73.1685 544.455 73.8442 544.337 74.5107L539.221 103.527L541.853 103.992C543.31 104.248 544.282 105.638 544.026 107.095C543.769 108.551 542.379 109.524 540.923 109.267L538.072 108.765C537.471 110.457 536.603 112.002 535.525 113.36L539.939 116.634C541.127 117.515 541.376 119.193 540.495 120.381C539.614 121.569 537.936 121.818 536.748 120.937L531.445 117.004C528.195 119.036 524.21 119.92 520.137 119.202L513.103 117.961C509.03 117.243 505.588 115.05 503.229 112.028L496.901 113.911C495.483 114.333 493.992 113.525 493.57 112.107C493.148 110.689 493.956 109.198 495.374 108.776L500.642 107.209C500.093 105.565 499.805 103.816 499.82 102.02L496.969 101.517C495.512 101.26 494.54 99.871 494.797 98.4141C495.053 96.9573 496.443 95.9845 497.9 96.2414L500.532 96.7055L505.648 67.6889C505.766 67.0223 506.25 66.4795 506.899 66.287ZM527.967 97.9165C529.424 98.1734 530.813 97.2006 531.07 95.7438C531.327 94.2869 530.354 92.8976 528.897 92.6408C527.44 92.3839 526.051 93.3567 525.794 94.8135C525.537 96.2704 526.51 97.6596 527.967 97.9165ZM513.019 95.2819C514.475 95.5388 515.865 94.566 516.122 93.1091C516.379 91.6522 515.406 90.263 513.949 90.0061C512.492 89.7492 511.103 90.722 510.846 92.1789C510.589 93.6357 511.562 95.025 513.019 95.2819ZM515.18 101.483C515.535 100.781 516.308 100.394 517.083 100.531L522.359 101.461C523.134 101.598 523.728 102.225 523.822 103.007C523.916 103.788 523.487 104.539 522.766 104.855L519.818 106.148C519.158 106.438 518.389 106.302 517.867 105.804L515.54 103.58C514.971 103.037 514.825 102.185 515.18 101.483Z"/>
</mask>
<path d="M688.12 174.66C688.12 217.56 644.56 241.54 613.32 241.54C577.46 241.54 546 215.58 546 176.86C546 131.54 579.88 108 618.6 108C667.22 108 688.12 146.06 688.12 174.66ZM618.6 199.52C634.22 199.52 641.26 186.76 641.26 174.22C641.26 170.04 640.38 148.7 617.94 148.7C599.46 148.7 594.18 164.32 594.18 174.22C594.18 189.4 606.06 199.52 618.6 199.52Z" fill="#FF7DA0"/>
<path d="M532.504 245.334L508.552 265.014C506.193 266.855 504.137 267.639 502.023 267.032C500.965 266.729 499.818 265.942 498.791 264.733C489.343 253.784 467.578 229.92 458.733 220.06C457.706 218.851 456.923 216.795 457.468 214.892C457.772 213.834 458.498 212.898 459.919 211.933L480.965 197.598C468.421 200.639 457.178 203.136 452.342 204.038L450.891 204.309L442.425 241.017C441.697 243.555 439.399 245.184 436.861 244.457L393.898 234.655C391.572 233.988 389.942 231.69 390.459 229.091L431.12 53.7673L431.241 53.3443C431.847 51.2295 434.296 49.872 436.472 50.2669L479.374 60.2802L479.797 60.4015C482.123 61.0685 483.269 63.457 482.813 65.8438L461.694 157.056C472.305 152.775 516.441 136.136 525.746 138.804C527.438 139.289 529.099 140.681 530.002 143.915L539.368 177.498C539.85 179.009 539.909 180.399 539.546 181.668C538.939 183.783 537.125 185.322 534.223 185.864C528.208 186.885 514.274 189.985 499.585 193.325C513.054 202.222 537.441 233.704 535.197 241.529C534.834 242.797 534.047 243.945 532.504 245.334Z" fill="#FF7DA0"/>
<path d="M347.66 216H345.02C295.08 216 270 181.9 270 148.46C270 117 292.22 84 342.38 84C396.94 84 399.36 132.62 399.36 139.88C399.36 150 395.18 158.36 382.2 162.76C371.86 166.28 355.58 168.7 344.14 169.14C340.62 169.14 339.52 167.6 338.64 164.96C336 157.7 331.82 143.4 331.82 142.52C331.82 140.1 333.58 139 336.44 138.34C347.88 135.7 349.42 135.26 349.42 132.18C349.42 130.2 345.24 123.16 336 123.16C325.44 123.16 316.64 132.4 316.64 146.04C316.64 161.66 328.08 179.26 355.58 179.26C357.12 179.26 358.88 179.26 360.42 179.04H360.86C363.94 179.04 367.68 181.02 367.68 184.76C367.68 186.96 361.96 201.92 358.66 209.4C356.9 212.92 354.04 216 347.66 216Z" fill="#FF7DA0"/>
<path d="M264.637 178.988L266.27 186.062C269.041 198.066 274.055 207.069 284.724 213.186C286.258 213.961 288.897 215.609 289.441 217.967C289.738 219.254 289.392 220.688 288.139 222.106C288.238 222.535 270.53 242.654 270.53 242.654C268.782 244.864 266.787 246.002 264.858 246.447C260.999 247.338 224.078 243.895 215.269 205.739L213.587 198.451C208.39 175.943 195.28 169.035 179.434 171.79L193.326 250.544C193.82 252.687 192.337 255.062 190.193 255.557L189.764 255.656L146.397 263.41C143.775 263.789 141.615 262.256 141.021 259.684L121.074 146.88C120.744 144.472 122.228 142.098 124.372 141.603L124.801 141.504L149.106 137.247C157.07 133.602 164.804 130.914 172.521 129.132C216.036 119.086 255.184 138.045 264.637 178.988Z" fill="#FF7DA0"/>
<path fill-rule="evenodd" clip-rule="evenodd" d="M506.899 66.287C507.548 66.0945 508.25 66.2853 508.712 66.7799L520.661 79.5716C521.583 79.6224 522.511 79.7286 523.442 79.8927C524.373 80.0568 525.281 80.2745 526.165 80.5421L541.769 72.6088C542.372 72.3021 543.097 72.3628 543.641 72.7657C544.185 73.1685 544.455 73.8442 544.337 74.5107L539.221 103.527L541.853 103.992C543.31 104.248 544.282 105.638 544.026 107.095C543.769 108.551 542.379 109.524 540.923 109.267L538.072 108.765C537.471 110.457 536.603 112.002 535.525 113.36L539.939 116.634C541.127 117.515 541.376 119.193 540.495 120.381C539.614 121.569 537.936 121.818 536.748 120.937L531.445 117.004C528.195 119.036 524.21 119.92 520.137 119.202L513.103 117.961C509.03 117.243 505.588 115.05 503.229 112.028L496.901 113.911C495.483 114.333 493.992 113.525 493.57 112.107C493.148 110.689 493.956 109.198 495.374 108.776L500.642 107.209C500.093 105.565 499.805 103.816 499.82 102.02L496.969 101.517C495.512 101.26 494.54 99.871 494.797 98.4141C495.053 96.9573 496.443 95.9845 497.9 96.2414L500.532 96.7055L505.648 67.6889C505.766 67.0223 506.25 66.4795 506.899 66.287ZM527.967 97.9165C529.424 98.1734 530.813 97.2006 531.07 95.7438C531.327 94.2869 530.354 92.8976 528.897 92.6408C527.44 92.3839 526.051 93.3567 525.794 94.8135C525.537 96.2704 526.51 97.6596 527.967 97.9165ZM513.019 95.2819C514.475 95.5388 515.865 94.566 516.122 93.1091C516.379 91.6522 515.406 90.263 513.949 90.0061C512.492 89.7492 511.103 90.722 510.846 92.1789C510.589 93.6357 511.562 95.025 513.019 95.2819ZM515.18 101.483C515.535 100.781 516.308 100.394 517.083 100.531L522.359 101.461C523.134 101.598 523.728 102.225 523.822 103.007C523.916 103.788 523.487 104.539 522.766 104.855L519.818 106.148C519.158 106.438 518.389 106.302 517.867 105.804L515.54 103.58C514.971 103.037 514.825 102.185 515.18 101.483Z" fill="#FF2121"/>
<path d="M688.12 174.66C688.12 217.56 644.56 241.54 613.32 241.54C577.46 241.54 546 215.58 546 176.86C546 131.54 579.88 108 618.6 108C667.22 108 688.12 146.06 688.12 174.66ZM618.6 199.52C634.22 199.52 641.26 186.76 641.26 174.22C641.26 170.04 640.38 148.7 617.94 148.7C599.46 148.7 594.18 164.32 594.18 174.22C594.18 189.4 606.06 199.52 618.6 199.52Z" stroke="#FFE2EC" stroke-width="90" stroke-linejoin="round" mask="url(#path-2-outside-1_37_4)"/>
<path d="M532.504 245.334L508.552 265.014C506.193 266.855 504.137 267.639 502.023 267.032C500.965 266.729 499.818 265.942 498.791 264.733C489.343 253.784 467.578 229.92 458.733 220.06C457.706 218.851 456.923 216.795 457.468 214.892C457.772 213.834 458.498 212.898 459.919 211.933L480.965 197.598C468.421 200.639 457.178 203.136 452.342 204.038L450.891 204.309L442.425 241.017C441.697 243.555 439.399 245.184 436.861 244.457L393.898 234.655C391.572 233.988 389.942 231.69 390.459 229.091L431.12 53.7673L431.241 53.3443C431.847 51.2295 434.296 49.872 436.472 50.2669L479.374 60.2802L479.797 60.4015C482.123 61.0685 483.269 63.457 482.813 65.8438L461.694 157.056C472.305 152.775 516.441 136.136 525.746 138.804C527.438 139.289 529.099 140.681 530.002 143.915L539.368 177.498C539.85 179.009 539.909 180.399 539.546 181.668C538.939 183.783 537.125 185.322 534.223 185.864C528.208 186.885 514.274 189.985 499.585 193.325C513.054 202.222 537.441 233.704 535.197 241.529C534.834 242.797 534.047 243.945 532.504 245.334Z" stroke="#FFE2EC" stroke-width="90" stroke-linejoin="round" mask="url(#path-2-outside-1_37_4)"/>
<path d="M347.66 216H345.02C295.08 216 270 181.9 270 148.46C270 117 292.22 84 342.38 84C396.94 84 399.36 132.62 399.36 139.88C399.36 150 395.18 158.36 382.2 162.76C371.86 166.28 355.58 168.7 344.14 169.14C340.62 169.14 339.52 167.6 338.64 164.96C336 157.7 331.82 143.4 331.82 142.52C331.82 140.1 333.58 139 336.44 138.34C347.88 135.7 349.42 135.26 349.42 132.18C349.42 130.2 345.24 123.16 336 123.16C325.44 123.16 316.64 132.4 316.64 146.04C316.64 161.66 328.08 179.26 355.58 179.26C357.12 179.26 358.88 179.26 360.42 179.04H360.86C363.94 179.04 367.68 181.02 367.68 184.76C367.68 186.96 361.96 201.92 358.66 209.4C356.9 212.92 354.04 216 347.66 216Z" stroke="#FFE2EC" stroke-width="90" stroke-linejoin="round" mask="url(#path-2-outside-1_37_4)"/>
<path d="M264.637 178.988L266.27 186.062C269.041 198.066 274.055 207.069 284.724 213.186C286.258 213.961 288.897 215.609 289.441 217.967C289.738 219.254 289.392 220.688 288.139 222.106C288.238 222.535 270.53 242.654 270.53 242.654C268.782 244.864 266.787 246.002 264.858 246.447C260.999 247.338 224.078 243.895 215.269 205.739L213.587 198.451C208.39 175.943 195.28 169.035 179.434 171.79L193.326 250.544C193.82 252.687 192.337 255.062 190.193 255.557L189.764 255.656L146.397 263.41C143.775 263.789 141.615 262.256 141.021 259.684L121.074 146.88C120.744 144.472 122.228 142.098 124.372 141.603L124.801 141.504L149.106 137.247C157.07 133.602 164.804 130.914 172.521 129.132C216.036 119.086 255.184 138.045 264.637 178.988Z" stroke="#FFE2EC" stroke-width="90" stroke-linejoin="round" mask="url(#path-2-outside-1_37_4)"/>
<path fill-rule="evenodd" clip-rule="evenodd" d="M506.899 66.287C507.548 66.0945 508.25 66.2853 508.712 66.7799L520.661 79.5716C521.583 79.6224 522.511 79.7286 523.442 79.8927C524.373 80.0568 525.281 80.2745 526.165 80.5421L541.769 72.6088C542.372 72.3021 543.097 72.3628 543.641 72.7657C544.185 73.1685 544.455 73.8442 544.337 74.5107L539.221 103.527L541.853 103.992C543.31 104.248 544.282 105.638 544.026 107.095C543.769 108.551 542.379 109.524 540.923 109.267L538.072 108.765C537.471 110.457 536.603 112.002 535.525 113.36L539.939 116.634C541.127 117.515 541.376 119.193 540.495 120.381C539.614 121.569 537.936 121.818 536.748 120.937L531.445 117.004C528.195 119.036 524.21 119.92 520.137 119.202L513.103 117.961C509.03 117.243 505.588 115.05 503.229 112.028L496.901 113.911C495.483 114.333 493.992 113.525 493.57 112.107C493.148 110.689 493.956 109.198 495.374 108.776L500.642 107.209C500.093 105.565 499.805 103.816 499.82 102.02L496.969 101.517C495.512 101.26 494.54 99.871 494.797 98.4141C495.053 96.9573 496.443 95.9845 497.9 96.2414L500.532 96.7055L505.648 67.6889C505.766 67.0223 506.25 66.4795 506.899 66.287ZM527.967 97.9165C529.424 98.1734 530.813 97.2006 531.07 95.7438C531.327 94.2869 530.354 92.8976 528.897 92.6408C527.44 92.3839 526.051 93.3567 525.794 94.8135C525.537 96.2704 526.51 97.6596 527.967 97.9165ZM513.019 95.2819C514.475 95.5388 515.865 94.566 516.122 93.1091C516.379 91.6522 515.406 90.263 513.949 90.0061C512.492 89.7492 511.103 90.722 510.846 92.1789C510.589 93.6357 511.562 95.025 513.019 95.2819ZM515.18 101.483C515.535 100.781 516.308 100.394 517.083 100.531L522.359 101.461C523.134 101.598 523.728 102.225 523.822 103.007C523.916 103.788 523.487 104.539 522.766 104.855L519.818 106.148C519.158 106.438 518.389 106.302 517.867 105.804L515.54 103.58C514.971 103.037 514.825 102.185 515.18 101.483Z" stroke="#FFE2EC" stroke-width="90" stroke-linejoin="round" mask="url(#path-2-outside-1_37_4)"/>
<mask id="mask0_37_4" style="mask-type:alpha" maskUnits="userSpaceOnUse" x="121" y="50" width="568" height="218">
<path d="M688.12 174.66C688.12 217.56 644.56 241.54 613.32 241.54C577.46 241.54 546 215.58 546 176.86C546 131.54 579.88 108 618.6 108C667.22 108 688.12 146.06 688.12 174.66ZM618.6 199.52C634.22 199.52 641.26 186.76 641.26 174.22C641.26 170.04 640.38 148.7 617.94 148.7C599.46 148.7 594.18 164.32 594.18 174.22C594.18 189.4 606.06 199.52 618.6 199.52Z" fill="#FF7DA0"/>
<path d="M532.504 245.334L508.552 265.014C506.193 266.855 504.137 267.639 502.023 267.032C500.965 266.729 499.818 265.942 498.791 264.733C489.343 253.784 467.578 229.92 458.733 220.06C457.706 218.851 456.923 216.795 457.468 214.892C457.772 213.834 458.498 212.898 459.919 211.933L480.965 197.598C468.421 200.639 457.178 203.136 452.342 204.038L450.891 204.309L442.425 241.017C441.697 243.555 439.399 245.184 436.861 244.457L393.898 234.655C391.572 233.988 389.942 231.69 390.459 229.091L431.12 53.7673L431.241 53.3443C431.847 51.2295 434.296 49.872 436.472 50.2669L479.374 60.2802L479.797 60.4015C482.123 61.0685 483.269 63.457 482.813 65.8438L461.694 157.056C472.305 152.775 516.441 136.136 525.746 138.804C527.438 139.289 529.099 140.681 530.002 143.915L539.368 177.498C539.85 179.009 539.909 180.399 539.546 181.668C538.939 183.783 537.125 185.322 534.223 185.864C528.208 186.885 514.274 189.985 499.585 193.325C513.054 202.222 537.441 233.704 535.197 241.529C534.834 242.797 534.047 243.945 532.504 245.334Z" fill="#FF7DA0"/>
<path d="M347.66 216H345.02C295.08 216 270 181.9 270 148.46C270 117 292.22 84 342.38 84C396.94 84 399.36 132.62 399.36 139.88C399.36 150 395.18 158.36 382.2 162.76C371.86 166.28 355.58 168.7 344.14 169.14C340.62 169.14 339.52 167.6 338.64 164.96C336 157.7 331.82 143.4 331.82 142.52C331.82 140.1 333.58 139 336.44 138.34C347.88 135.7 349.42 135.26 349.42 132.18C349.42 130.2 345.24 123.16 336 123.16C325.44 123.16 316.64 132.4 316.64 146.04C316.64 161.66 328.08 179.26 355.58 179.26C357.12 179.26 358.88 179.26 360.42 179.04H360.86C363.94 179.04 367.68 181.02 367.68 184.76C367.68 186.96 361.96 201.92 358.66 209.4C356.9 212.92 354.04 216 347.66 216Z" fill="#FF7DA0"/>
<path d="M264.637 178.988L266.27 186.062C269.041 198.066 274.055 207.069 284.724 213.186C286.258 213.961 288.897 215.609 289.441 217.967C289.738 219.254 289.392 220.688 288.139 222.106C288.238 222.535 270.53 242.654 270.53 242.654C268.782 244.864 266.787 246.002 264.858 246.447C260.999 247.338 224.078 243.895 215.269 205.739L213.587 198.451C208.39 175.943 195.28 169.035 179.434 171.79L193.326 250.544C193.82 252.687 192.337 255.062 190.193 255.557L189.764 255.656L146.397 263.41C143.775 263.789 141.615 262.256 141.021 259.684L121.074 146.88C120.744 144.472 122.228 142.098 124.372 141.603L124.801 141.504L149.106 137.247C157.07 133.602 164.804 130.914 172.521 129.132C216.036 119.086 255.184 138.045 264.637 178.988Z" fill="#FF7DA0"/>
</mask>
<g mask="url(#mask0_37_4)">
<path d="M198.5 197L83 245.5L99.5 294L671 278.5L711 161.5L609.5 180.5L545.5 145L488 125L401.5 145L331 133.5L279 197H198.5Z" fill="#FF2121"/>
<path opacity="0.25" d="M181.5 187L66 235.5L82.5 284L654 268.5L694 151.5L592.5 170.5L528.5 135L471 115L384.5 135L314 123.5L262 187H181.5Z" fill="#FF2121"/>
<path opacity="0.25" d="M187.5 170L72 218.5L88.5 267L660 251.5L700 134.5L598.5 153.5L534.5 118L477 98L390.5 118L320 106.5L268 170H187.5Z" fill="#FF2121"/>
<path d="M198.5 197L83 245.5L99.5 294L671 278.5L711 161.5L609.5 180.5L545.5 145L488 125L401.5 145L331 133.5L279 197H198.5Z" fill="#FF2121"/>
</g>
</svg>
