<svg width="100" height="100" viewBox="0 0 100 100" fill="none" xmlns="http://www.w3.org/2000/svg">
<path d="M48.5 41V22C48.5 22 51 15.5 63.5 15.5C76 15.5 76 20 76 20V46.5L80.5 54C80.5 54 83.1429 62.1301 80.5 66C77.984 69.6841 70 70.5 70 70.5C70 70.5 70.3054 75.8838 68.5 78.5C65.3455 83.071 59.4056 83.6038 54.5 81C50.9111 79.0951 48.5 72.5 48.5 72.5C48.5 72.5 42.1381 77.1739 37.5 77C32.3449 76.8067 28.2976 75.1189 26 70.5C24.1738 66.8286 26 60 26 60C26 60 22.5452 59.2173 21.5 57.5C20.0465 55.1118 23 50.5 23 50.5L48.5 41Z" fill="#FFE8CB" stroke="black" stroke-width="3" stroke-linejoin="round"/>
</svg>
